# xmcd
#
# Track frame offsets:
#	150
#	7885
#	20907
#	24847
#	31087
#	37562
#	39182
#	46770
#	51972
#	57347
#	63612
#	68947
#	73410
#	81785
#	86470
#	89530
#	92665
#	96272
#	105977
#	109507
#	117017
#	121517
#	126870
#	129802
#	135005
#	137500
#	144817
#	150072
#	152962
#	159310
#	164362
#	169152
#	171335
#	173155
#	181497
#	187802
#	195272
#	217332
#
# Disc length: 3182 seconds
#
# Revision: 1
# Processed by: cddbd v1.5.1PL0 Copyright (c) Steve Scherf et al.
# Submitted via: CDex 1.50Beta5
#
DISCID=d90c6c26
DTITLE=Love Connection - ケロケロちゃいむ テレビ・サウンドトラック
DYEAR=1997
DGENRE=
TTITLE0=Love Connection/YOU’RE THE ONLY ONE
TTITLE1=TVサントラ/ミモリのテーマ
TTITLE2=TVサントラ/のんきなミモザ 1
TTITLE3=TVサントラ/大脱走 1
TTITLE4=TVサントラ/おんなの子的心像
TTITLE5=TVサントラ/危機迫る
TTITLE6=TVサントラ/アオイのテーマ
TTITLE7=TVサントラ/サスペンス 1
TTITLE8=TVサントラ/ギャグ 1
TTITLE9=TVサントラ/サスペンス 2
TTITLE10=TVサントラ/モモちゃんの怒り
TTITLE11=TVサントラ/平和がもどった
TTITLE12=TVサントラ/マカエル ブリッジ
TTITLE13=TVサントラ/いたずら好き
TTITLE14=TVサントラ/ギャグ 2
TTITLE15=TVサントラ/おちこみ
TTITLE16=TVサントラ/不気味
TTITLE17=TVサントラ/過去のいきさつ
TTITLE18=TVサントラ/すばらしい風景
TTITLE19=TVサントラ/水晶玉の晶子のテーマ
TTITLE20=TVサントラ/リープのテーマ
TTITLE21=TVサントラ/オルゴール 1
TTITLE22=TVサントラ/平和な日々
TTITLE23=TVサントラ/よいこの時間
TTITLE24=TVサントラ/忍び寄る
TTITLE25=TVサントラ/スーのテーマ
TTITLE26=TVサントラ/アクション!スー
TTITLE27=TVサントラ/幻想的な雰囲気
TTITLE28=TVサントラ/のんきなミモリ 2
TTITLE29=TVサントラ/ミモリのピンチ?!
TTITLE30=TVサントラ/大脱走 2
TTITLE31=TVサントラ/ちょっと感動
TTITLE32=TVサントラ/めでたしめでたし
TTITLE33=TVサントラ/アクション!ミモリ
TTITLE34=TVサントラ/オルゴール 2
TTITLE35=近澤美歩/サムシング
TTITLE36=Love Connection/YOU’RE THE ONLY ONE
TTITLE37=近澤美歩/サムシング
EXTD=
EXTT0=
EXTT1=
EXTT2=
EXTT3=
EXTT4=
EXTT5=
EXTT6=
EXTT7=
EXTT8=
EXTT9=
EXTT10=
EXTT11=
EXTT12=
EXTT13=
EXTT14=
EXTT15=
EXTT16=
EXTT17=
EXTT18=
EXTT19=
EXTT20=
EXTT21=
EXTT22=
EXTT23=
EXTT24=
EXTT25=
EXTT26=
EXTT27=
EXTT28=
EXTT29=
EXTT30=
EXTT31=
EXTT32=
EXTT33=
EXTT34=
EXTT35=
EXTT36=
EXTT37=
PLAYORDER=
